<svg width="43" height="29" viewBox="0 0 43 29" fill="none" xmlns="http://www.w3.org/2000/svg">
<path d="M0 14.5C0 14.5 8.0625 0 21.5 0C34.9375 0 43 14.5 43 14.5C43 14.5 34.9375 29 21.5 29C8.0625 29 0 14.5 0 14.5ZM21.5 23.7273C23.9947 23.7273 26.3872 22.7551 28.1512 21.0247C29.9152 19.2942 30.9062 16.9472 30.9062 14.5C30.9062 12.0528 29.9152 9.70578 28.1512 7.97533C26.3872 6.24488 23.9947 5.27273 21.5 5.27273C19.0053 5.27273 16.6128 6.24488 14.8488 7.97533C13.0848 9.70578 12.0938 12.0528 12.0938 14.5C12.0938 16.9472 13.0848 19.2942 14.8488 21.0247C16.6128 22.7551 19.0053 23.7273 21.5 23.7273Z" fill="#6F6C99"/>
</svg>
