<svg width="41" height="41" viewBox="0 0 41 41" fill="none" xmlns="http://www.w3.org/2000/svg">
<path d="M7.32143 2.92857C8.48649 2.92857 9.60383 3.39139 10.4276 4.21521C11.2515 5.03903 11.7143 6.15637 11.7143 7.32143V11.7143H7.32143C6.74455 11.7143 6.17332 11.6007 5.64036 11.3799C5.10739 11.1591 4.62313 10.8356 4.21521 10.4276C3.8073 10.0197 3.48372 9.53547 3.26296 9.0025C3.0422 8.46954 2.92857 7.89831 2.92857 7.32143C2.92857 6.74455 3.0422 6.17332 3.26296 5.64036C3.48372 5.10739 3.8073 4.62313 4.21521 4.21521C4.62313 3.8073 5.10739 3.48372 5.64036 3.26296C6.17332 3.0422 6.74455 2.92857 7.32143 2.92857ZM14.6429 11.7143V7.32143C14.6429 5.87339 14.2135 4.45787 13.409 3.25386C12.6045 2.04986 11.461 1.11146 10.1232 0.557314C8.7854 0.00317226 7.31331 -0.141816 5.89309 0.140682C4.47287 0.423181 3.16832 1.12048 2.1444 2.1444C1.12048 3.16832 0.423181 4.47287 0.140682 5.89309C-0.141816 7.31331 0.00317226 8.7854 0.557314 10.1232C1.11146 11.461 2.04986 12.6045 3.25386 13.409C4.45787 14.2135 5.87339 14.6429 7.32143 14.6429H11.7143V26.3571H7.32143C5.87339 26.3571 4.45787 26.7865 3.25386 27.591C2.04986 28.3955 1.11146 29.539 0.557314 30.8768C0.00317226 32.2146 -0.141816 33.6867 0.140682 35.1069C0.423181 36.5271 1.12048 37.8317 2.1444 38.8556C3.16832 39.8795 4.47287 40.5768 5.89309 40.8593C7.31331 41.1418 8.7854 40.9968 10.1232 40.4427C11.461 39.8885 12.6045 38.9501 13.409 37.7461C14.2135 36.5421 14.6429 35.1266 14.6429 33.6786V29.2857H26.3571V33.6786C26.3571 35.1266 26.7865 36.5421 27.591 37.7461C28.3955 38.9501 29.539 39.8885 30.8768 40.4427C32.2146 40.9968 33.6867 41.1418 35.1069 40.8593C36.5271 40.5768 37.8317 39.8795 38.8556 38.8556C39.8795 37.8317 40.5768 36.5271 40.8593 35.1069C41.1418 33.6867 40.9968 32.2146 40.4427 30.8768C39.8885 29.539 38.9501 28.3955 37.7461 27.591C36.5421 26.7865 35.1266 26.3571 33.6786 26.3571H29.2857V14.6429H33.6786C35.1266 14.6429 36.5421 14.2135 37.7461 13.409C38.9501 12.6045 39.8885 11.461 40.4427 10.1232C40.9968 8.7854 41.1418 7.31331 40.8593 5.89309C40.5768 4.47287 39.8795 3.16832 38.8556 2.1444C37.8317 1.12048 36.5271 0.423181 35.1069 0.140682C33.6867 -0.141816 32.2146 0.00317226 30.8768 0.557314C29.539 1.11146 28.3955 2.04986 27.591 3.25386C26.7865 4.45787 26.3571 5.87339 26.3571 7.32143V11.7143H14.6429ZM26.3571 14.6429V26.3571H14.6429V14.6429H26.3571ZM29.2857 11.7143V7.32143C29.2857 6.45261 29.5433 5.60329 30.026 4.88089C30.5087 4.15849 31.1948 3.59545 31.9975 3.26296C32.8002 2.93048 33.6834 2.84348 34.5356 3.01298C35.3877 3.18248 36.1704 3.60086 36.7848 4.21521C37.3991 4.82956 37.8175 5.6123 37.987 6.46443C38.1565 7.31656 38.0695 8.19981 37.737 9.0025C37.4046 9.80519 36.8415 10.4913 36.1191 10.974C35.3967 11.4566 34.5474 11.7143 33.6786 11.7143H29.2857ZM29.2857 29.2857H33.6786C34.5474 29.2857 35.3967 29.5433 36.1191 30.026C36.8415 30.5087 37.4046 31.1948 37.737 31.9975C38.0695 32.8002 38.1565 33.6834 37.987 34.5356C37.8175 35.3877 37.3991 36.1704 36.7848 36.7848C36.1704 37.3991 35.3877 37.8175 34.5356 37.987C33.6834 38.1565 32.8002 38.0695 31.9975 37.737C31.1948 37.4046 30.5087 36.8415 30.026 36.1191C29.5433 35.3967 29.2857 34.5474 29.2857 33.6786V29.2857ZM11.7143 29.2857V33.6786C11.7143 34.5474 11.4566 35.3967 10.974 36.1191C10.4913 36.8415 9.80519 37.4046 9.0025 37.737C8.19981 38.0695 7.31656 38.1565 6.46443 37.987C5.6123 37.8175 4.82956 37.3991 4.21521 36.7848C3.60086 36.1704 3.18248 35.3877 3.01298 34.5356C2.84348 33.6834 2.93048 32.8002 3.26296 31.9975C3.59545 31.1948 4.15849 30.5087 4.88089 30.026C5.60329 29.5433 6.45261 29.2857 7.32143 29.2857H11.7143Z" fill="#6F6C99"/>
</svg>
