<svg width="37" height="37" viewBox="0 0 37 37" fill="none" xmlns="http://www.w3.org/2000/svg">
<path d="M0.23317 5.14273C-0.0797193 6.31947 -0.0776767 7.55775 0.239093 8.73346C0.555863 9.90916 1.17623 10.981 2.03802 11.8415C2.8998 12.702 3.97272 13.3209 5.14924 13.6363C6.32576 13.9517 7.56454 13.9524 8.74141 13.6383L23.4099 28.0951C23.1051 29.1303 23.0458 30.2223 23.2367 31.2844C23.4277 32.3465 23.8637 33.3496 24.5101 34.2139C25.1565 35.0781 25.9956 35.78 26.9606 36.2636C27.9257 36.7472 28.9903 36.9994 30.0698 37C31.0644 36.9986 32.0471 36.7836 32.9512 36.3694C33.8554 35.9552 34.6599 35.3517 35.3103 34.5995C35.9607 33.8474 36.4418 32.9643 36.721 32.0101C37.0002 31.0559 37.0709 30.0529 36.9284 29.069C36.7859 28.0851 36.4335 27.1433 35.895 26.3074C35.3566 25.4715 34.6447 24.7611 33.8076 24.2242C32.9705 23.6874 32.0278 23.3367 31.0432 23.1958C30.0587 23.055 29.0554 23.1274 28.1012 23.408L13.6386 8.74537C13.9543 7.56852 13.9548 6.32937 13.64 5.15228C13.3252 3.97519 12.7062 2.90158 11.8451 2.0392C10.984 1.17682 9.91113 0.55602 8.73417 0.239097C7.55721 -0.0778269 6.31756 -0.0797198 5.13963 0.233608L10.0924 5.18667L9.25033 9.25178L5.1859 10.0935L0.23317 5.14273ZM31.1617 25.9978L32.3831 26.058L33.047 27.0869L34.0764 27.7506L34.1366 28.9738L34.6964 30.0629L34.1366 31.1521L34.0764 32.3753L33.047 33.0389L32.3831 34.0679L31.1594 34.1281L30.0698 34.6876L28.9803 34.1281L27.7566 34.0679L27.0926 33.0389L26.0632 32.3753L26.0031 31.1521L25.4433 30.0629L26.0031 28.9738L26.0632 27.7506L27.0926 27.0869L27.7566 26.058L28.9803 25.9978L30.0698 25.4382L31.1617 25.9978Z" fill="#6F6C99"/>
</svg>
