<svg width="45" height="28" viewBox="0 0 45 28" fill="none" xmlns="http://www.w3.org/2000/svg">
<path fill-rule="evenodd" clip-rule="evenodd" d="M0 5.6C0 4.11479 0.592632 2.69041 1.64752 1.6402C2.70242 0.589998 4.13316 3.87834e-08 5.625 3.87834e-08H26.7188C28.0831 -0.000159734 29.401 0.49334 30.427 1.3886C31.453 2.28386 32.1172 3.51985 32.2959 4.8664L41.0428 0.9968C41.471 0.80688 41.94 0.726498 42.4073 0.762959C42.8745 0.799421 43.3253 0.951569 43.7185 1.20557C44.1116 1.45958 44.4348 1.80739 44.6586 2.21739C44.8825 2.62738 44.9998 3.08657 45 3.5532V24.4468C44.9996 24.9131 44.8822 25.3719 44.6586 25.7815C44.4349 26.1912 44.112 26.5387 43.7192 26.7927C43.3264 27.0466 42.8761 27.1989 42.4092 27.2356C41.9424 27.2724 41.4736 27.1925 41.0456 27.0032L32.2959 23.1336C32.1172 24.4802 31.453 25.7161 30.427 26.6114C29.401 27.5067 28.0831 28.0002 26.7188 28H5.625C4.13316 28 2.70242 27.41 1.64752 26.3598C0.592632 25.3096 0 23.8852 0 22.4V5.6ZM32.3438 20.09L42.1875 24.4468V3.5532L32.3438 7.91V20.09ZM5.625 2.8C4.87908 2.8 4.16371 3.095 3.63626 3.6201C3.10882 4.1452 2.8125 4.85739 2.8125 5.6V22.4C2.8125 23.1426 3.10882 23.8548 3.63626 24.3799C4.16371 24.905 4.87908 25.2 5.625 25.2H26.7188C27.4647 25.2 28.18 24.905 28.7075 24.3799C29.2349 23.8548 29.5312 23.1426 29.5312 22.4V5.6C29.5312 4.85739 29.2349 4.1452 28.7075 3.6201C28.18 3.095 27.4647 2.8 26.7188 2.8H5.625Z" fill="#6F6C99"/>
</svg>
