<svg width="39" height="39" viewBox="0 0 39 39" fill="none" xmlns="http://www.w3.org/2000/svg">
<path fill-rule="evenodd" clip-rule="evenodd" d="M0 0H2.4375V36.5625H39V39H0V0ZM24.375 8.53125C24.375 8.20802 24.5034 7.89802 24.732 7.66946C24.9605 7.4409 25.2705 7.3125 25.5938 7.3125H35.3438C35.667 7.3125 35.977 7.4409 36.2055 7.66946C36.4341 7.89802 36.5625 8.20802 36.5625 8.53125V18.2812C36.5625 18.6045 36.4341 18.9145 36.2055 19.143C35.977 19.3716 35.667 19.5 35.3438 19.5C35.0205 19.5 34.7105 19.3716 34.482 19.143C34.2534 18.9145 34.125 18.6045 34.125 18.2812V11.9438L25.3183 22.7102C25.2105 22.8418 25.0763 22.9493 24.9245 23.026C24.7726 23.1026 24.6063 23.1465 24.4364 23.155C24.2665 23.1635 24.0967 23.1364 23.938 23.0753C23.7792 23.0142 23.635 22.9206 23.5146 22.8004L17.2087 16.4946L8.29725 28.7479C8.10231 28.9958 7.81886 29.1584 7.50648 29.2017C7.19411 29.245 6.87712 29.1655 6.62213 28.9799C6.36714 28.7944 6.19401 28.5172 6.13911 28.2066C6.08422 27.8961 6.15183 27.5764 6.32775 27.3146L16.0778 13.9084C16.1812 13.7658 16.3144 13.6474 16.4681 13.5612C16.6217 13.4751 16.7922 13.4233 16.9679 13.4094C17.1435 13.3955 17.32 13.4198 17.4853 13.4807C17.6506 13.5416 17.8007 13.6376 17.9254 13.7621L24.2848 20.124L32.7722 9.75H25.5938C25.2705 9.75 24.9605 9.6216 24.732 9.39304C24.5034 9.16448 24.375 8.85448 24.375 8.53125Z" fill="#6F6C99"/>
</svg>
