<svg width="41" height="29" viewBox="0 0 41 29" fill="none" xmlns="http://www.w3.org/2000/svg">
<g clip-path="url(#clip0_1_20)">
<path d="M41.0114 9.09057C41.0114 6.67959 40.0634 4.36737 38.3759 2.66255C36.6884 0.957739 34.3996 0 32.0131 0H8.99841C7.81727 -9.60833e-07 6.64762 0.235199 5.55653 0.692185C4.46544 1.14917 3.4743 1.81897 2.63964 2.66326C1.80497 3.50755 1.14322 4.50977 0.692257 5.61262C0.241293 6.71547 0.00998294 7.89732 0.0114818 9.09057V19.9094C0.0114799 22.3184 0.95793 24.6289 2.64298 26.3333C4.32803 28.0378 6.61388 28.9969 8.99841 29H32.0131C34.3987 28.9969 36.6857 28.0382 38.3725 26.3341C40.0594 24.6299 41.0084 22.3195 41.0114 19.9094V9.09057ZM27.474 15.3123L17.2098 20.4624C16.7992 20.6813 15.4306 20.3933 15.4306 19.9209V9.34404C15.4306 8.87166 16.8106 8.57209 17.2212 8.80252L27.0977 14.2292C27.4513 14.4712 27.8846 15.0818 27.4626 15.3123H27.474Z" fill="white"/>
</g>
<defs>
<clipPath id="clip0_1_20">
<rect width="41" height="29" fill="white"/>
</clipPath>
</defs>
</svg>
