<svg width="29" height="29" viewBox="0 0 29 29" fill="none" xmlns="http://www.w3.org/2000/svg">
<g clip-path="url(#clip0_1_15)">
<path d="M0 29L2.08731 21.2377C0.405355 18.2141 -0.127072 14.687 0.587733 11.3034C1.30254 7.91989 3.2166 4.90695 5.97874 2.81746C8.74088 0.727972 12.1658 -0.297899 15.625 -0.0719289C19.0843 0.154041 22.3458 1.6167 24.8112 4.04767C27.2765 6.47863 28.7803 9.71485 29.0466 13.1625C29.3129 16.6101 28.3238 20.0379 26.2609 22.8168C24.198 25.5958 21.1996 27.5395 17.8159 28.2913C14.4321 29.0431 10.8901 28.5526 7.83965 26.9098L0 29ZM8.21762 24L8.71066 24.2951C11.1595 25.7479 14.0566 26.2568 16.8557 25.7259C19.6547 25.195 22.1623 23.6609 23.9056 21.413C25.649 19.1651 26.5075 16.3586 26.3194 13.5229C26.1312 10.6871 24.9094 8.01799 22.8844 6.0188C20.8593 4.01962 18.1709 2.82855 15.3261 2.67018C12.4813 2.5118 9.67674 3.39706 7.4412 5.15903C5.20567 6.92101 3.69359 9.43794 3.19025 12.2352C2.6869 15.0325 3.227 17.9168 4.70868 20.3443L5.01273 20.8361L3.85412 25.1721L8.21762 24Z" fill="white"/>
<path fill-rule="evenodd" clip-rule="evenodd" d="M19.9853 16.3115C19.7004 16.0842 19.3673 15.9248 19.0113 15.8452C18.6553 15.7657 18.2858 15.7682 17.9309 15.8525C17.3968 16.0656 17.0598 16.9017 16.7147 17.3279C16.6404 17.4287 16.5321 17.4993 16.4097 17.5264C16.2873 17.5535 16.1591 17.5354 16.0491 17.4754C14.0952 16.7087 12.4569 15.3084 11.3979 13.5C11.3092 13.385 11.2675 13.2406 11.2812 13.0962C11.2949 12.9517 11.363 12.8177 11.4718 12.7213C11.8587 12.346 12.1418 11.8773 12.2936 11.3607C12.3237 10.7897 12.1928 10.2218 11.9156 9.72133C11.6966 9.01824 11.2803 8.39244 10.7158 7.91805C10.4245 7.78481 10.1005 7.73944 9.78364 7.7875C9.46681 7.83555 9.17101 7.97494 8.93258 8.18853C8.52191 8.54124 8.1958 8.98134 7.97821 9.47642C7.76062 9.97149 7.65706 10.5089 7.67526 11.0492C7.68064 11.353 7.71923 11.6554 7.79032 11.9508C7.98114 12.659 8.27464 13.3355 8.66144 13.959C8.94084 14.4344 9.24488 14.8935 9.57358 15.3443C10.6437 16.8046 11.9856 18.0458 13.5262 19C14.3002 19.4837 15.1274 19.877 15.9915 20.1722C16.8894 20.5772 17.8803 20.733 18.8595 20.623C19.4186 20.5357 19.9479 20.314 20.4017 19.977C20.8556 19.6399 21.2204 19.1977 21.4645 18.6885C21.6005 18.3795 21.6406 18.0369 21.5795 17.7049C21.4563 17.0492 20.5359 16.6393 19.9853 16.3115Z" fill="white"/>
</g>
<defs>
<clipPath id="clip0_1_15">
<rect width="29" height="29" fill="white"/>
</clipPath>
</defs>
</svg>
